<?xml version="1.0" encoding="UTF-8"?>
<svg xmlns="http://www.w3.org/2000/svg" viewBox="0 0 32 32">
    <path d="M 15.75 4 L 15.59375 4.03125 L 4.71875 7.40625 L 4 7.625 L 4 8.375 L 4 22.96875 L 4 23.6875 L 4.65625 23.90625 L 15.53125 27.9375 L 15.71875 28 L 15.875 28 L 16.125 28 L 16.28125 28 L 16.46875 27.9375 L 27.34375 23.90625 L 28 23.6875 L 28 22.96875 L 28 8.375 L 28 7.625 L 27.28125 7.40625 L 16.40625 4.03125 L 16.25 4 L 16.125 4 L 15.875 4 L 15.75 4 z M 15 6.34375 L 15 18.5 L 6 21.59375 L 6 9.125 L 15 6.34375 z M 17 6.34375 L 26 9.125 L 26 21.59375 L 23 20.5625 L 23 11.5625 L 19 10.28125 L 19 19.1875 L 17 18.5 L 17 6.34375 z M 13 10.40625 L 9 11.65625 L 9 17.15625 L 13 15.59375 L 13 10.40625 z M 16 20.25 L 24 23 L 16 25.96875 L 8 23 L 16 20.25 z"/>
</svg>