<svg width="291" height="175" viewBox="0 0 291 175" fill="none" xmlns="http://www.w3.org/2000/svg">
<g clip-path="url(#clip0)">
<path d="M15.1826 174.57C15.1632 174.484 13.2804 165.899 17.1255 158.768C20.9705 151.638 29.1781 148.493 29.2606 148.462L29.6357 148.321L29.7243 148.712C29.7437 148.798 31.6265 157.384 27.7814 164.514C23.9366 171.645 15.7288 174.789 15.6464 174.82L15.2711 174.961L15.1826 174.57ZM29.1212 149.276C27.4772 149.983 20.9886 153.078 17.7412 159.1C14.4934 165.123 15.4732 172.246 15.7857 174.007C17.429 173.302 23.9151 170.211 27.1658 164.182C30.4134 158.16 29.4339 151.038 29.1212 149.275V149.276Z" fill="#F1F1F1"/>
<path d="M24.8431 162.013C17.9334 166.17 15.2722 174.427 15.2722 174.427C15.2722 174.427 23.814 175.945 30.7237 171.787C37.6334 167.63 40.2946 159.373 40.2946 159.373C40.2946 159.373 31.7529 157.856 24.8431 162.013Z" fill="#F1F1F1"/>
<path d="M129.482 95.3707C129.588 94.8268 129.573 94.2664 129.438 93.729C129.303 93.1917 129.052 92.6903 128.703 92.2604C128.354 91.8304 127.914 91.4823 127.416 91.2405C126.917 90.9988 126.372 90.8692 125.818 90.861L122.618 82.8142L117.254 83.566L121.932 94.8663C121.98 95.7978 122.368 96.6794 123.023 97.3439C123.677 98.0085 124.553 98.4099 125.483 98.4721C126.414 98.5343 127.335 98.2529 128.072 97.6813C128.809 97.1097 129.311 96.2876 129.482 95.3707Z" fill="#9F616A"/>
<path d="M119.6 92.5433L117.937 88.5797L107.58 68.8634L108.143 32.3813L108.251 32.3669C114.879 31.4913 119.363 62.0292 119.551 63.3297L126.095 85.7116L127.653 90.645L119.6 92.5433Z" fill="#6C63FF"/>
<path d="M103.684 169.472L108.72 169.471L111.116 150.047L103.683 150.047L103.684 169.472Z" fill="#9F616A"/>
<path d="M102.4 167.828L112.317 167.827H112.318C113.994 167.827 115.602 168.493 116.787 169.678C117.972 170.864 118.638 172.471 118.638 174.148V174.353L102.4 174.353L102.4 167.828Z" fill="#2F2E41"/>
<path d="M57.3796 161.799L61.5117 164.678L74.5832 150.112L68.4849 145.862L57.3796 161.799Z" fill="#9F616A"/>
<path d="M57.2659 159.716L65.4029 165.386L65.4033 165.386C66.7784 166.344 67.7166 167.81 68.0114 169.46C68.3061 171.11 67.9334 172.81 66.9751 174.185L66.8577 174.353L53.535 165.07L57.2659 159.716Z" fill="#2F2E41"/>
<path d="M100.917 164.906L100.699 128.466L97.5302 105.554L91.6225 125.703L91.611 125.72L70.2023 156.801L61.8719 152.58L61.9176 152.472C62.4267 151.261 74.4226 122.821 77.647 122.821C77.9286 122.841 78.2108 122.792 78.4692 122.679C78.7276 122.565 78.9546 122.39 79.1305 122.17C80.0769 120.906 79.3062 118.224 79.2983 118.197C78.3752 114.37 80.6961 113.066 81.1583 112.849L82.4016 87.1838L82.5304 87.1927L116.235 89.5569L114.821 121.645L111.78 163.687L111.675 163.699L100.917 164.906Z" fill="#2F2E41"/>
<path d="M116.75 95.2439L116.604 95.2321L80.3558 92.3101L80.4453 80.3164L82.2194 49.0003L82.2295 48.9785L89.4547 33.2927L94.5765 30.9734L102.049 30.5802L102.067 30.5848L108.887 32.2743L115.981 83.2003L116.75 95.2439Z" fill="#6C63FF"/>
<path d="M103.22 26.5602C107.845 24.0319 109.545 18.233 107.017 13.608C104.488 8.983 98.6894 7.28326 94.0644 9.81152C89.4394 12.3398 87.7396 18.1387 90.2679 22.7637C92.7961 27.3887 98.595 29.0884 103.22 26.5602Z" fill="#9F616A"/>
<path d="M89.044 20.5816V16.8631C89.044 16.8631 86.0452 13.3312 89.3439 12.4416C89.3439 12.4416 90.2435 3.5449 98.0404 7.69668C98.0404 7.69668 108.836 5.91735 107.636 12.145C107.636 12.145 110.335 10.5192 109.436 14.671L107.696 21.3588C107.696 21.3588 108.536 16.941 105.837 16.3479L104.338 15.4582C104.338 15.4582 100.139 19.61 93.8421 14.5685C93.8421 14.5685 91.1432 13.9244 91.443 16.5934C91.7429 19.2624 89.044 20.5816 89.044 20.5816Z" fill="#2F2E41"/>
<path d="M97.6485 86.2872C97.6545 85.7333 97.539 85.1847 97.3101 84.6802C97.0812 84.1757 96.7445 83.7276 96.3236 83.3673C95.9028 83.007 95.408 82.7434 94.8743 82.595C94.3405 82.4466 93.7807 82.417 93.2343 82.5084L88.6424 75.1664L83.5001 76.8687L90.1304 87.1459C90.3447 88.0537 90.8845 88.8513 91.6476 89.3877C92.4108 89.924 93.3441 90.1618 94.2708 90.056C95.1975 89.9501 96.0532 89.508 96.6758 88.8134C97.2983 88.1188 97.6444 87.22 97.6485 86.2872Z" fill="#9F616A"/>
<path d="M85.7886 83.9729L77.4812 67.1066L77.4885 67.0655C77.522 66.8788 80.866 48.3113 83.4236 41.4864C85.9974 34.6183 89.5203 33.2394 89.669 33.184L89.7434 33.1564L92.9023 36.1864L88.5265 65.3935L93.2432 79.4797L85.7886 83.9729Z" fill="#6C63FF"/>
<path d="M291 0H274.915V16.085H291V0Z" fill="#F1F1F1"/>
<path d="M165.118 62.5915H149.033V78.6764H165.118V62.5915Z" fill="#F1F1F1"/>
<path d="M158.061 71.6279H285.228V7.25006H158.061V71.6279Z" fill="white"/>
<path d="M286.277 72.677H157.012V6.20105H286.277V72.677ZM159.11 70.579H284.179V8.29909H159.11V70.579Z" fill="#E5E5E5"/>
<path d="M271.166 29.8326H173.325V33.0773H271.166V29.8326Z" fill="#E5E5E5"/>
<path d="M271.166 37.7014H173.325V40.946H271.166V37.7014Z" fill="#E5E5E5"/>
<path d="M271.166 49.3198H252.983V52.1356H271.166V49.3198Z" fill="#6C63FF"/>
<path d="M133.575 174.947H0.349673C0.256934 174.947 0.167993 174.91 0.102417 174.845C0.0368402 174.779 0 174.69 0 174.597C0 174.505 0.0368402 174.416 0.102417 174.35C0.167993 174.284 0.256934 174.248 0.349673 174.248H133.575C133.668 174.248 133.757 174.284 133.822 174.35C133.888 174.416 133.925 174.505 133.925 174.597C133.925 174.69 133.888 174.779 133.822 174.845C133.757 174.91 133.668 174.947 133.575 174.947Z" fill="#CBCBCB"/>
</g>
<defs>
<clipPath id="clip0">
<rect width="291" height="174.961" fill="white"/>
</clipPath>
</defs>
</svg>
