<svg width="328" height="307" viewBox="0 0 328 307" fill="none" xmlns="http://www.w3.org/2000/svg">
<ellipse cx="164" cy="153.5" rx="164" ry="153.5" fill="#889AF8" fill-opacity="0.2"/>
<ellipse cx="164" cy="153.5" rx="164" ry="153.5" fill="#889AF8" fill-opacity="0.2"/>
<g filter="url(#filter0_d)">
<path d="M168 251C237.588 251 294 244.732 294 237C294 229.268 237.588 223 168 223C98.4121 223 42 229.268 42 237C42 244.732 98.4121 251 168 251Z" fill="#F2F2F2"/>
</g>
<g filter="url(#filter1_d)">
<path d="M168 251C237.588 251 294 244.732 294 237C294 229.268 237.588 223 168 223C98.4121 223 42 229.268 42 237C42 244.732 98.4121 251 168 251Z" fill="#F2F2F2"/>
</g>
<g filter="url(#filter2_d)">
<g clip-path="url(#clip0)">
<path d="M158.211 92.0226H96.0454C95.7402 92.0222 95.4476 91.9025 95.2317 91.6897C95.0159 91.4769 94.8945 91.1884 94.8942 90.8874V75.6823C94.8945 75.3813 95.0159 75.0928 95.2317 74.88C95.4476 74.6672 95.7402 74.5475 96.0454 74.5471H158.211C158.516 74.5475 158.808 74.6672 159.024 74.88C159.24 75.0928 159.361 75.3813 159.362 75.6823V90.8874C159.361 91.1884 159.24 91.4769 159.024 91.6897C158.808 91.9025 158.516 92.0222 158.211 92.0226ZM96.0454 75.0012C95.8622 75.0014 95.6867 75.0732 95.5572 75.2009C95.4277 75.3286 95.3548 75.5017 95.3546 75.6823V90.8874C95.3548 91.068 95.4277 91.2411 95.5572 91.3688C95.6867 91.4965 95.8622 91.5683 96.0454 91.5685H158.211C158.394 91.5683 158.569 91.4965 158.699 91.3688C158.828 91.2411 158.901 91.068 158.901 90.8874V75.6823C158.901 75.5017 158.828 75.3286 158.699 75.2009C158.569 75.0732 158.394 75.0014 158.211 75.0012L96.0454 75.0012Z" fill="#3F3D56"/>
<path d="M105.705 87.3254C108.294 87.3254 110.394 85.2552 110.394 82.7014C110.394 80.1477 108.294 78.0775 105.705 78.0775C103.115 78.0775 101.015 80.1477 101.015 82.7014C101.015 85.2552 103.115 87.3254 105.705 87.3254Z" fill="#6C63FF"/>
<path d="M116.535 79.6188C116.328 79.6188 116.129 79.7 115.982 79.8445C115.836 79.9891 115.753 80.1851 115.753 80.3895C115.753 80.5939 115.836 80.7899 115.982 80.9344C116.129 81.0789 116.328 81.1601 116.535 81.1601H153.38C153.587 81.1601 153.786 81.0789 153.933 80.9344C154.079 80.7899 154.162 80.5939 154.162 80.3895C154.162 80.1851 154.079 79.9891 153.933 79.8445C153.786 79.7 153.587 79.6188 153.38 79.6188H116.535Z" fill="#E6E6E6"/>
<path d="M116.535 84.2427C116.328 84.2427 116.129 84.3239 115.982 84.4685C115.836 84.613 115.753 84.809 115.753 85.0134C115.753 85.2178 115.836 85.4138 115.982 85.5583C116.129 85.7028 116.328 85.784 116.535 85.784H132.39C132.492 85.7842 132.594 85.7644 132.689 85.7258C132.784 85.6871 132.87 85.6304 132.943 85.5588C133.016 85.4872 133.074 85.4022 133.113 85.3086C133.152 85.215 133.173 85.1147 133.173 85.0134C133.173 84.9121 133.152 84.8117 133.113 84.7181C133.074 84.6246 133.016 84.5395 132.943 84.468C132.87 84.3964 132.784 84.3396 132.689 84.301C132.594 84.2623 132.492 84.2426 132.39 84.2427H116.535Z" fill="#E6E6E6"/>
<path d="M131.222 146.222H103.593C103.288 146.222 102.995 146.102 102.78 145.889C102.564 145.676 102.442 145.388 102.442 145.087V116.714C102.442 116.413 102.564 116.125 102.78 115.912C102.995 115.699 103.288 115.58 103.593 115.579H131.222C131.528 115.58 131.82 115.699 132.036 115.912C132.252 116.125 132.373 116.413 132.373 116.714V145.087C132.373 145.388 132.252 145.676 132.036 145.889C131.82 146.102 131.528 146.222 131.222 146.222ZM103.593 116.033C103.41 116.033 103.235 116.105 103.105 116.233C102.976 116.361 102.903 116.534 102.902 116.714V145.087C102.903 145.268 102.976 145.441 103.105 145.568C103.235 145.696 103.41 145.768 103.593 145.768H131.222C131.405 145.768 131.581 145.696 131.71 145.568C131.84 145.441 131.913 145.268 131.913 145.087V116.714C131.913 116.534 131.84 116.361 131.71 116.233C131.581 116.105 131.405 116.033 131.222 116.033H103.593Z" fill="#3F3D56"/>
<path d="M109.48 121.43C109.273 121.43 109.074 121.511 108.928 121.656C108.781 121.8 108.699 121.996 108.699 122.201C108.699 122.405 108.781 122.601 108.928 122.746C109.074 122.89 109.273 122.971 109.48 122.971H125.335C125.542 122.971 125.741 122.89 125.888 122.746C126.034 122.601 126.117 122.405 126.117 122.201C126.117 121.996 126.034 121.8 125.888 121.656C125.741 121.511 125.542 121.43 125.335 121.43H109.48Z" fill="#E6E6E6"/>
<path d="M109.48 125.971C109.378 125.97 109.276 125.99 109.181 126.029C109.086 126.068 109 126.124 108.927 126.196C108.854 126.267 108.796 126.352 108.757 126.446C108.718 126.54 108.697 126.64 108.697 126.741C108.697 126.843 108.718 126.943 108.757 127.037C108.796 127.13 108.854 127.215 108.927 127.287C109 127.358 109.086 127.415 109.181 127.454C109.276 127.492 109.378 127.512 109.48 127.512H125.335C125.542 127.512 125.741 127.431 125.888 127.286C126.034 127.142 126.117 126.946 126.117 126.741C126.117 126.537 126.034 126.341 125.888 126.196C125.741 126.052 125.542 125.971 125.335 125.971H109.48Z" fill="#E6E6E6"/>
<path d="M117.408 140.371C116.435 140.371 115.484 140.087 114.675 139.554C113.866 139.021 113.235 138.263 112.863 137.377C112.49 136.49 112.393 135.515 112.583 134.574C112.773 133.633 113.241 132.769 113.929 132.09C114.617 131.412 115.494 130.95 116.448 130.763C117.402 130.575 118.391 130.671 119.29 131.039C120.189 131.406 120.958 132.027 121.498 132.825C122.039 133.623 122.327 134.561 122.327 135.52C122.326 136.806 121.807 138.039 120.885 138.949C119.963 139.858 118.712 140.37 117.408 140.371Z" fill="#6C63FF"/>
<path d="M176.483 52H204.112C204.418 52.0004 204.71 52.1201 204.926 52.3329C205.142 52.5457 205.263 52.8342 205.264 53.1351V81.5078C205.263 81.8088 205.142 82.0973 204.926 82.3101C204.71 82.5229 204.418 82.6426 204.112 82.6429H176.483C176.178 82.6426 175.885 82.5229 175.67 82.3101C175.454 82.0973 175.332 81.8088 175.332 81.5078V53.1351C175.332 52.8342 175.454 52.5457 175.67 52.3329C175.885 52.1201 176.178 52.0004 176.483 52ZM204.112 82.1889C204.295 82.1887 204.471 82.1169 204.601 81.9892C204.73 81.8615 204.803 81.6884 204.803 81.5078V53.1351C204.803 52.9546 204.73 52.7814 204.601 52.6538C204.471 52.5261 204.295 52.4542 204.112 52.4541H176.483C176.3 52.4542 176.125 52.5261 175.995 52.6538C175.866 52.7814 175.793 52.9546 175.793 53.1351V81.5078C175.793 81.6884 175.866 81.8615 175.995 81.9892C176.125 82.1169 176.3 82.1887 176.483 82.1889H204.112Z" fill="#3F3D56"/>
<path d="M198.225 76.792C198.432 76.792 198.631 76.7108 198.778 76.5663C198.924 76.4217 199.007 76.2257 199.007 76.0213C199.007 75.8169 198.924 75.6209 198.778 75.4764C198.631 75.3319 198.432 75.2507 198.225 75.2507H182.37C182.163 75.2507 181.964 75.3319 181.818 75.4764C181.671 75.6209 181.589 75.8169 181.589 76.0213C181.589 76.2257 181.671 76.4217 181.818 76.5663C181.964 76.7108 182.163 76.792 182.37 76.792H198.225Z" fill="#E6E6E6"/>
<path d="M198.225 72.2515C198.432 72.2515 198.631 72.1703 198.778 72.0257C198.924 71.8812 199.007 71.6852 199.007 71.4808C199.007 71.2764 198.924 71.0804 198.778 70.9359C198.631 70.7913 198.432 70.7102 198.225 70.7102H182.37C182.163 70.7102 181.964 70.7913 181.818 70.9359C181.671 71.0804 181.589 71.2764 181.589 71.4808C181.589 71.6852 181.671 71.8812 181.818 72.0257C181.964 72.1703 182.163 72.2515 182.37 72.2515H198.225Z" fill="#E6E6E6"/>
<path d="M190.298 57.851C191.271 57.851 192.222 58.1355 193.031 58.6685C193.84 59.2015 194.47 59.9591 194.843 60.8455C195.215 61.7319 195.313 62.7073 195.123 63.6482C194.933 64.5892 194.464 65.4536 193.776 66.132C193.088 66.8104 192.212 67.2724 191.257 67.4596C190.303 67.6467 189.314 67.5507 188.415 67.1835C187.516 66.8164 186.748 66.1946 186.207 65.3969C185.667 64.5992 185.378 63.6613 185.378 62.7019C185.38 61.4158 185.898 60.1828 186.821 59.2734C187.743 58.364 188.993 57.8524 190.298 57.851Z" fill="#6C63FF"/>
<path d="M95.2492 110.699C100.138 106.965 105.85 104.419 111.923 103.266C118.044 102.116 124.356 102.436 130.325 104.199C133.325 105.08 136.208 106.311 138.912 107.868C141.667 109.456 144.157 111.411 146.552 113.48C148.978 115.577 151.325 117.767 153.858 119.741C161.089 125.441 170.067 128.555 179.324 128.575C180.089 128.576 180.853 128.555 181.617 128.513C182.031 128.49 182.034 127.852 181.617 127.875C172.18 128.387 162.862 125.61 155.292 120.031C152.666 118.095 150.269 115.882 147.822 113.737C145.45 111.658 143.014 109.635 140.322 107.965C133.738 103.875 126.078 101.787 118.299 101.962C110.519 102.137 102.964 104.567 96.5762 108.948C95.9688 109.364 95.3755 109.8 94.7917 110.248C94.4635 110.5 94.9243 110.948 95.2492 110.699V110.699Z" fill="#3F3D56"/>
<path d="M94.9057 113.782C96.7625 113.782 98.2678 112.298 98.2678 110.467C98.2678 108.636 96.7625 107.152 94.9057 107.152C93.0489 107.152 91.5436 108.636 91.5436 110.467C91.5436 112.298 93.0489 113.782 94.9057 113.782Z" fill="#3F3D56"/>
<path d="M219.983 157.798C221.84 157.798 223.345 156.314 223.345 154.483C223.345 152.652 221.84 151.168 219.983 151.168C218.126 151.168 216.621 152.652 216.621 154.483C216.621 156.314 218.126 157.798 219.983 157.798Z" fill="#3F3D56"/>
<path d="M237.597 135.599H182.737C182.432 135.598 182.139 135.478 181.924 135.266C181.708 135.053 181.586 134.764 181.586 134.463V106.318C181.586 106.017 181.708 105.728 181.924 105.516C182.139 105.303 182.432 105.183 182.737 105.183H237.597C237.902 105.183 238.195 105.303 238.41 105.515C238.626 105.728 238.748 106.017 238.748 106.318V134.463C238.748 134.764 238.626 135.053 238.41 135.266C238.195 135.478 237.902 135.598 237.597 135.599ZM182.737 105.637C182.554 105.637 182.378 105.709 182.249 105.836C182.119 105.964 182.047 106.137 182.046 106.318V134.463C182.047 134.644 182.119 134.817 182.249 134.945C182.378 135.072 182.554 135.144 182.737 135.144H237.597C237.78 135.144 237.955 135.072 238.085 134.945C238.214 134.817 238.287 134.644 238.287 134.463V106.318C238.287 106.137 238.214 105.964 238.085 105.836C237.955 105.709 237.78 105.637 237.597 105.637H182.737Z" fill="#3F3D56"/>
<path d="M191.936 119.777C194.526 119.777 196.625 117.707 196.625 115.153C196.625 112.599 194.526 110.529 191.936 110.529C189.346 110.529 187.246 112.599 187.246 115.153C187.246 117.707 189.346 119.777 191.936 119.777Z" fill="#6C63FF"/>
<path d="M202.766 112.071C202.663 112.07 202.562 112.09 202.467 112.129C202.372 112.167 202.285 112.224 202.213 112.296C202.14 112.367 202.082 112.452 202.043 112.546C202.003 112.64 201.983 112.74 201.983 112.841C201.983 112.942 202.003 113.043 202.043 113.136C202.082 113.23 202.14 113.315 202.213 113.387C202.285 113.458 202.372 113.515 202.467 113.554C202.562 113.592 202.663 113.612 202.766 113.612H232.306C232.513 113.612 232.712 113.531 232.858 113.386C233.005 113.242 233.087 113.046 233.087 112.841C233.087 112.637 233.005 112.441 232.858 112.296C232.712 112.152 232.513 112.071 232.306 112.071H202.766Z" fill="#E6E6E6"/>
<path d="M202.766 116.694C202.663 116.694 202.562 116.714 202.467 116.753C202.372 116.791 202.285 116.848 202.213 116.92C202.14 116.991 202.082 117.076 202.043 117.17C202.003 117.263 201.983 117.364 201.983 117.465C201.983 117.566 202.003 117.667 202.043 117.76C202.082 117.854 202.14 117.939 202.213 118.011C202.285 118.082 202.372 118.139 202.467 118.177C202.562 118.216 202.663 118.236 202.766 118.236H218.621C218.828 118.236 219.027 118.155 219.173 118.01C219.32 117.866 219.402 117.669 219.402 117.465C219.402 117.261 219.32 117.065 219.173 116.92C219.027 116.776 218.828 116.694 218.621 116.694H202.766Z" fill="#E6E6E6"/>
<path d="M188.339 124.087C187.744 124.087 187.261 124.433 187.261 124.857C187.261 125.282 187.744 125.628 188.339 125.628H231.868C232.463 125.628 232.947 125.282 232.947 124.857C232.947 124.433 232.463 124.087 231.868 124.087H188.339Z" fill="#E6E6E6"/>
<path d="M188.339 128.711C187.744 128.711 187.261 129.056 187.261 129.481C187.261 129.906 187.744 130.252 188.339 130.252H231.868C232.463 130.252 232.947 129.906 232.947 129.481C232.947 129.056 232.463 128.711 231.868 128.711H188.339Z" fill="#E6E6E6"/>
<path d="M178.327 157.57C181.422 156.246 184.878 157.4 187.795 158.62C189.297 159.249 190.784 159.919 192.338 160.415C193.646 160.832 194.986 161.145 196.344 161.352C199.07 161.763 201.843 161.78 204.573 161.401C207.318 161.024 209.993 160.257 212.515 159.124C215.023 158.003 217.341 156.509 219.388 154.693C219.649 154.461 219.904 154.224 220.154 153.982C220.452 153.694 219.995 153.243 219.697 153.53C217.726 155.425 215.463 157 212.992 158.198C210.531 159.391 207.907 160.222 205.202 160.665C202.488 161.116 199.721 161.163 196.993 160.805C195.632 160.623 194.288 160.335 192.974 159.943C191.464 159.459 189.983 158.892 188.537 158.245C185.593 156.998 182.322 155.777 179.086 156.637C178.715 156.738 178.353 156.865 178.001 157.019C177.62 157.182 177.949 157.732 178.327 157.57V157.57Z" fill="#3F3D56"/>
<path d="M177.131 165.394H151.213L157.312 154.976C157.422 154.79 157.579 154.635 157.768 154.527C157.958 154.419 158.173 154.362 158.391 154.362C158.61 154.362 158.825 154.419 159.014 154.527C159.203 154.635 159.361 154.79 159.47 154.976L162.076 159.426L166.506 151.86C166.643 151.626 166.84 151.432 167.077 151.297C167.314 151.162 167.583 151.091 167.856 151.091C168.13 151.091 168.399 151.162 168.636 151.297C168.873 151.432 169.07 151.626 169.207 151.86L177.131 165.394Z" fill="#6C63FF"/>
<path d="M177.156 165.391H149.527C149.222 165.39 148.929 165.271 148.713 165.058C148.497 164.845 148.376 164.557 148.376 164.256V149.051C148.376 148.75 148.497 148.461 148.713 148.248C148.929 148.035 149.222 147.916 149.527 147.915H177.156C177.461 147.916 177.754 148.035 177.969 148.248C178.185 148.461 178.307 148.75 178.307 149.051V164.256C178.307 164.557 178.185 164.845 177.969 165.058C177.754 165.271 177.461 165.39 177.156 165.391ZM149.527 148.369C149.344 148.37 149.168 148.441 149.039 148.569C148.909 148.697 148.836 148.87 148.836 149.051V164.256C148.836 164.436 148.909 164.609 149.039 164.737C149.168 164.865 149.344 164.937 149.527 164.937H177.156C177.339 164.937 177.515 164.865 177.644 164.737C177.774 164.609 177.846 164.436 177.847 164.256V149.051C177.846 148.87 177.774 148.697 177.644 148.569C177.515 148.441 177.339 148.37 177.156 148.369H149.527Z" fill="#3F3D56"/>
<path d="M231.347 152.009L226.422 154.475C224.664 155.355 222.968 155.204 222.318 153.369C222.164 152.932 222.106 152.468 222.151 152.007C222.195 151.547 222.34 151.101 222.575 150.701C222.81 150.301 223.131 149.955 223.514 149.688C223.897 149.421 224.334 149.239 224.795 149.154L229.476 148.293L249.522 141.735L261.665 133.245L266.116 140.238L252.085 147.703L231.347 152.009Z" fill="#FFB8B8"/>
<path d="M254.336 233.859L250.568 233.24L250.987 226.222H254.964L254.336 233.859Z" fill="#FFB8B8"/>
<path d="M290.906 227.004L287.26 228.126L284.426 221.676L287.976 219.908L290.906 227.004Z" fill="#FFB8B8"/>
<path d="M288.876 220.855L284.27 222.713L262.291 194.229L255.383 227.667L250.777 226.841C247.823 198.013 245.414 168.609 248.37 154.702L265.431 153.979L273.176 178.335L276.944 194.848L288.876 220.855Z" fill="#2F2E41"/>
<path d="M254.129 239.535C253.44 239.68 252.722 239.605 252.079 239.32L249.841 238.327C247.964 238.232 246.686 238.6 245.641 237.256C245.346 236.871 245.161 236.416 245.105 235.937C245.049 235.459 245.123 234.974 245.321 234.533C245.517 234.091 245.829 233.708 246.225 233.424C246.621 233.14 247.086 232.965 247.573 232.917L250.648 231.007L250.809 232.439C252.214 233.224 253.882 232.885 255.65 232.121L256.615 235.451C256.739 235.88 256.773 236.33 256.714 236.773C256.655 237.216 256.504 237.642 256.271 238.025C256.037 238.408 255.727 238.739 255.359 238.999C254.99 239.259 254.572 239.441 254.129 239.535Z" fill="#2F2E41"/>
<path d="M292.398 232.704C291.795 233.062 291.091 233.221 290.389 233.157L287.945 232.934C286.138 233.445 285.051 234.203 283.62 233.266C283.215 232.997 282.89 232.625 282.679 232.191C282.468 231.756 282.379 231.273 282.421 230.793C282.461 230.312 282.63 229.85 282.911 229.455C283.192 229.06 283.574 228.745 284.019 228.544L286.298 225.753L286.922 227.056C288.509 227.348 289.975 226.493 291.396 225.205L293.405 228.045C293.664 228.412 293.844 228.826 293.934 229.264C294.024 229.702 294.021 230.153 293.927 230.59C293.832 231.027 293.648 231.44 293.385 231.803C293.122 232.167 292.786 232.473 292.398 232.704Z" fill="#2F2E41"/>
<path d="M259.151 124.67C263.313 124.67 266.687 121.343 266.687 117.239C266.687 113.135 263.313 109.808 259.151 109.808C254.989 109.808 251.615 113.135 251.615 117.239C251.615 121.343 254.989 124.67 259.151 124.67Z" fill="#FFB8B8"/>
<path d="M268.361 132.926L258.523 130.862L257.267 122.812L264.175 121.367L268.361 132.926Z" fill="#FFB8B8"/>
<path d="M265.64 155.011H248.056L252.02 145.2C251.732 141.823 253.183 139.34 255.26 137.178L257.895 130.655C262.152 127.892 265.362 128.099 268.78 131.687C272.832 137.345 270.027 145.85 265.64 155.011Z" fill="#6C63FF"/>
<path d="M257.685 175.859L257.185 181.282C257.007 183.218 255.976 184.555 254.054 184.122C253.597 184.019 253.167 183.82 252.795 183.538C252.423 183.256 252.117 182.898 251.899 182.489C251.68 182.08 251.553 181.629 251.528 181.167C251.502 180.705 251.578 180.243 251.751 179.813L253.499 175.446L258.523 155.218L257.685 140.563H266.059L265.012 156.25L257.685 175.859Z" fill="#FFB8B8"/>
<path d="M266.687 140.976H257.057L257.732 134.782C257.777 133.711 258.226 132.695 258.991 131.933C259.756 131.171 260.783 130.719 261.869 130.666C262.444 130.637 263.02 130.722 263.562 130.914C264.104 131.107 264.602 131.403 265.027 131.787C265.452 132.17 265.796 132.633 266.039 133.148C266.281 133.663 266.418 134.221 266.44 134.789L266.687 140.976Z" fill="#6C63FF"/>
<path d="M268.477 109.599C270.042 109.599 271.31 108.348 271.31 106.806C271.31 105.263 270.042 104.013 268.477 104.013C266.913 104.013 265.645 105.263 265.645 106.806C265.645 108.348 266.913 109.599 268.477 109.599Z" fill="#2F2E41"/>
<path d="M265.559 106.122C265.605 105.413 265.924 104.749 266.45 104.264C266.976 103.779 267.67 103.51 268.39 103.511C268.331 103.504 268.273 103.495 268.214 103.491C267.464 103.444 266.727 103.693 266.163 104.182C265.599 104.671 265.255 105.361 265.207 106.1C265.159 106.838 265.41 107.566 265.906 108.122C266.402 108.679 267.101 109.018 267.85 109.066C267.91 109.07 267.969 109.068 268.028 109.068C267.313 108.979 266.66 108.625 266.201 108.077C265.743 107.53 265.513 106.83 265.559 106.122Z" fill="#2F2E41"/>
<path d="M265.543 107.315C263.017 105.248 255.771 107.874 255.303 109.264C251.887 109.723 249.301 111.688 249.301 115.182V115.182C251.332 116.003 253.642 115.902 256.139 115.182C260.119 118.381 260.392 122.401 257.971 127.02L260.949 127.078L264.64 121.759L264.817 127.155L271.643 127.02V119.287C271.665 116.716 271.065 114.176 269.893 111.88C268.829 109.842 267.178 108.652 265.543 107.315Z" fill="#2F2E41"/>
<path d="M259.186 120.977C259.934 120.977 260.54 120.14 260.54 119.107C260.54 118.074 259.934 117.237 259.186 117.237C258.438 117.237 257.831 118.074 257.831 119.107C257.831 120.14 258.438 120.977 259.186 120.977Z" fill="#FFB8B8"/>
<path d="M88.7549 121.48C88.7549 121.48 89.5702 107.564 93.8032 110.726C98.0362 113.888 91.9546 122.77 91.9546 122.77L88.7549 121.48Z" fill="#FFB9B9"/>
<path d="M73.0064 162.758C73.0064 162.758 82.4093 173.166 77.1485 173.882C71.8878 174.597 69.8184 164.076 69.8184 164.076L73.0064 162.758Z" fill="#FFB9B9"/>
<path d="M60.7363 113.489C61.9165 113.795 62.9786 114.438 63.7892 115.338C64.5998 116.237 65.1229 117.353 65.2927 118.544L68.2836 139.535L72.4766 156.28C72.4766 156.28 74.573 158.14 73.7345 159.174C72.8959 160.207 74.7827 164.549 74.7827 164.549L69.5415 166.202C69.5415 166.202 68.9126 161.861 67.8643 161.654C66.9431 161.473 56.6307 134.309 54.145 127.729C53.8022 126.821 53.6083 126.305 53.6083 126.305C53.6083 126.305 54.0276 112.455 60.7363 113.489Z" fill="#575A89"/>
<path d="M61.6937 222.956L64.913 228.581C67.406 233.829 65.1906 234.783 59.078 232.181L57.6847 225.539L61.6937 222.956Z" fill="#FFB9B9"/>
<path d="M63.3179 230.432C63.3179 230.432 64.8462 227.979 65.3989 228.389C65.9517 228.8 68.2316 230.579 68.2316 230.579L71.2012 233.384C71.2012 233.384 81.2343 234.43 74.8591 237.896C68.4838 241.362 64.9606 238.488 64.9606 238.488C64.9606 238.488 56.0314 238.946 56.1754 236.49C56.3195 234.033 59.1992 230.147 59.1992 230.147C59.1992 230.147 62.8286 232.546 63.3179 230.432Z" fill="#2F2E41"/>
<path d="M47.4081 159.37L50.4262 195.379C50.4262 195.379 50.5268 216.905 53.7461 221.071C56.9654 225.237 57.0659 227.32 57.0659 227.32L63.7057 223.948C63.7057 223.948 60.2852 218.328 60.9894 217.467C61.4235 216.922 61.7324 216.29 61.8949 215.615L60.084 193.395L63.5045 154.708L47.4081 159.37Z" fill="#2F2E41"/>
<path d="M55.6574 222.956L52.8406 230.296L46.4523 227.663L49.8225 222.162L55.6574 222.956Z" fill="#FFB9B9"/>
<path d="M50.9582 227.824C50.9582 227.824 53.3541 226.347 53.6536 226.938C53.9531 227.529 55.151 230.039 55.151 230.039L56.4988 233.73C56.4988 233.73 64.7348 238.898 57.6967 239.193C50.6587 239.489 48.8617 235.502 48.8617 235.502C48.8617 235.502 40.9252 232.106 42.1232 230.039C43.3211 227.971 47.514 225.828 47.514 225.828C47.514 225.828 49.6104 229.448 50.9582 227.824Z" fill="#2F2E41"/>
<path d="M72.9612 159.469L74.5708 192.601C74.5708 192.601 59.8828 222.559 58.2732 223.352C57.7935 223.597 57.3684 223.933 57.0228 224.342C56.6772 224.751 56.4182 225.224 56.2611 225.733L47.4081 223.551L51.4322 217.202L60.2852 195.974C60.2852 195.974 61.6937 195.379 62.0961 193.395C62.4985 191.411 63.3033 191.411 61.2913 191.014C59.2792 190.617 59.2792 188.633 59.2792 188.633L52.6394 158.477L72.9612 159.469Z" fill="#2F2E41"/>
<path d="M73.6621 100.825C74.3741 96.4986 71.3945 92.4224 67.007 91.7203C62.6195 91.0183 58.4856 93.9563 57.7736 98.2825C57.0616 102.609 60.0412 106.685 64.4287 107.387C68.8162 108.089 72.9502 105.151 73.6621 100.825Z" fill="#FFB9B9"/>
<path d="M58.5751 100.05C58.5751 100.05 57.9715 110.168 57.1667 111.16C56.3619 112.152 65.6173 111.953 65.6173 111.953C65.6173 111.953 65.0137 103.422 65.6173 102.629C66.2209 101.835 58.5751 100.05 58.5751 100.05Z" fill="#FFB9B9"/>
<path d="M73.5641 161.652C73.5641 161.652 50.8279 159.668 46.6036 161.652C46.6036 161.652 48.1587 155.963 47.7569 155.369C47.4647 154.934 48.2709 138.731 48.0178 129.385C47.8743 124.11 46.6402 118.96 50.2278 115.044C51.4489 113.714 52.8108 112.597 54.2485 112.052C54.2485 112.052 53.8467 108.283 55.8584 108.085C55.8584 108.085 63.5058 107.29 66.3211 109.672C67.2213 110.429 67.7875 112.734 67.8475 114.72C66.4542 121.476 66.9473 128.973 68.2258 136.75C68.3041 137.244 68.3902 137.741 68.4763 138.237C69.833 145.95 71.8838 153.903 73.5641 161.652Z" fill="#575A89"/>
<path d="M61.5134 101.892C62.194 101.852 62.8586 102.079 63.5345 102.167C65.9528 102.484 68.4685 100.754 69.0024 98.4065C69.0452 98.094 69.1397 97.7905 69.2821 97.5081C69.6543 96.9089 70.5019 96.7947 71.2006 96.9324C71.8994 97.0702 72.5617 97.3927 73.2733 97.4295C74.372 97.4863 75.4268 96.8194 76.0124 95.9009C76.5657 94.9534 76.801 93.8576 76.6846 92.7703L76.1579 93.3153C75.9439 92.8689 75.8613 92.3721 75.9194 91.8816C75.6403 91.8083 75.3468 91.8069 75.067 91.8775C74.7871 91.9481 74.5304 92.0884 74.3213 92.2849C73.8568 92.3336 74.2073 91.4354 73.8623 91.1251C73.6945 91.0234 73.4945 90.9865 73.3007 91.0215C72.3127 91.0309 71.5134 90.2857 70.7348 89.6858C69.3858 88.6488 67.8083 87.9393 66.1297 87.6146C65.014 87.4 63.8277 87.3656 62.7696 87.7752C61.9155 88.1533 61.1446 88.6924 60.5004 89.3624C58.8439 90.933 57.377 92.7784 56.6879 94.9401C56.1277 96.7107 56.1118 98.6053 56.6423 100.385C56.92 101.309 57.7569 104.474 58.982 104.548C60.5215 104.64 59.5972 102.005 61.5134 101.892Z" fill="#2F2E41"/>
<path d="M64.8447 114.463L67.7281 114.767C67.7281 114.767 70.5586 120.182 70.353 121.311C70.1475 122.441 69.6998 121.755 70.9738 123.562C72.2477 125.369 75.8627 130.04 76.3104 130.725C76.758 131.411 88.9619 122.23 88.2032 119.479C88.2032 119.479 92.0575 122.206 93.7088 122.568C93.7088 122.568 81.1317 138.833 79.3791 140.914C77.6264 142.996 76.2159 142.568 73.8072 141.334C71.3986 140.1 59.2135 127.79 59.2135 127.79L64.8447 114.463Z" fill="#575A89"/>
<path opacity="0.1" d="M68.4763 138.237L58.4545 128.355L60.9906 127.54L68.2258 136.75C68.3041 137.244 68.3902 137.741 68.4763 138.237Z" fill="black"/>
</g>
</g>
<g filter="url(#filter3_d)">
<g clip-path="url(#clip1)">
<path d="M158.211 92.0226H96.0454C95.7402 92.0222 95.4476 91.9025 95.2317 91.6897C95.0159 91.4769 94.8945 91.1884 94.8942 90.8874V75.6823C94.8945 75.3813 95.0159 75.0928 95.2317 74.88C95.4476 74.6672 95.7402 74.5475 96.0454 74.5471H158.211C158.516 74.5475 158.808 74.6672 159.024 74.88C159.24 75.0928 159.361 75.3813 159.362 75.6823V90.8874C159.361 91.1884 159.24 91.4769 159.024 91.6897C158.808 91.9025 158.516 92.0222 158.211 92.0226ZM96.0454 75.0012C95.8622 75.0014 95.6867 75.0732 95.5572 75.2009C95.4277 75.3286 95.3548 75.5017 95.3546 75.6823V90.8874C95.3548 91.068 95.4277 91.2411 95.5572 91.3688C95.6867 91.4965 95.8622 91.5683 96.0454 91.5685H158.211C158.394 91.5683 158.569 91.4965 158.699 91.3688C158.828 91.2411 158.901 91.068 158.901 90.8874V75.6823C158.901 75.5017 158.828 75.3286 158.699 75.2009C158.569 75.0732 158.394 75.0014 158.211 75.0012L96.0454 75.0012Z" fill="#3F3D56"/>
<path d="M105.705 87.3254C108.294 87.3254 110.394 85.2552 110.394 82.7014C110.394 80.1477 108.294 78.0775 105.705 78.0775C103.115 78.0775 101.015 80.1477 101.015 82.7014C101.015 85.2552 103.115 87.3254 105.705 87.3254Z" fill="#6C63FF"/>
<path d="M116.535 79.6188C116.328 79.6188 116.129 79.7 115.982 79.8445C115.836 79.9891 115.753 80.1851 115.753 80.3895C115.753 80.5939 115.836 80.7899 115.982 80.9344C116.129 81.0789 116.328 81.1601 116.535 81.1601H153.38C153.587 81.1601 153.786 81.0789 153.933 80.9344C154.079 80.7899 154.162 80.5939 154.162 80.3895C154.162 80.1851 154.079 79.9891 153.933 79.8445C153.786 79.7 153.587 79.6188 153.38 79.6188H116.535Z" fill="#E6E6E6"/>
<path d="M116.535 84.2427C116.328 84.2427 116.129 84.3239 115.982 84.4685C115.836 84.613 115.753 84.809 115.753 85.0134C115.753 85.2178 115.836 85.4138 115.982 85.5583C116.129 85.7028 116.328 85.784 116.535 85.784H132.39C132.492 85.7842 132.594 85.7644 132.689 85.7258C132.784 85.6871 132.87 85.6304 132.943 85.5588C133.016 85.4872 133.074 85.4022 133.113 85.3086C133.152 85.215 133.173 85.1147 133.173 85.0134C133.173 84.9121 133.152 84.8117 133.113 84.7181C133.074 84.6246 133.016 84.5395 132.943 84.468C132.87 84.3964 132.784 84.3396 132.689 84.301C132.594 84.2623 132.492 84.2426 132.39 84.2427H116.535Z" fill="#E6E6E6"/>
<path d="M131.222 146.222H103.593C103.288 146.222 102.995 146.102 102.78 145.889C102.564 145.676 102.442 145.388 102.442 145.087V116.714C102.442 116.413 102.564 116.125 102.78 115.912C102.995 115.699 103.288 115.58 103.593 115.579H131.222C131.528 115.58 131.82 115.699 132.036 115.912C132.252 116.125 132.373 116.413 132.373 116.714V145.087C132.373 145.388 132.252 145.676 132.036 145.889C131.82 146.102 131.528 146.222 131.222 146.222ZM103.593 116.033C103.41 116.033 103.235 116.105 103.105 116.233C102.976 116.361 102.903 116.534 102.902 116.714V145.087C102.903 145.268 102.976 145.441 103.105 145.568C103.235 145.696 103.41 145.768 103.593 145.768H131.222C131.405 145.768 131.581 145.696 131.71 145.568C131.84 145.441 131.913 145.268 131.913 145.087V116.714C131.913 116.534 131.84 116.361 131.71 116.233C131.581 116.105 131.405 116.033 131.222 116.033H103.593Z" fill="#3F3D56"/>
<path d="M109.48 121.43C109.273 121.43 109.074 121.511 108.928 121.656C108.781 121.8 108.699 121.996 108.699 122.201C108.699 122.405 108.781 122.601 108.928 122.746C109.074 122.89 109.273 122.971 109.48 122.971H125.335C125.542 122.971 125.741 122.89 125.888 122.746C126.034 122.601 126.117 122.405 126.117 122.201C126.117 121.996 126.034 121.8 125.888 121.656C125.741 121.511 125.542 121.43 125.335 121.43H109.48Z" fill="#E6E6E6"/>
<path d="M109.48 125.971C109.378 125.97 109.276 125.99 109.181 126.029C109.086 126.068 109 126.124 108.927 126.196C108.854 126.267 108.796 126.352 108.757 126.446C108.718 126.54 108.697 126.64 108.697 126.741C108.697 126.843 108.718 126.943 108.757 127.037C108.796 127.13 108.854 127.215 108.927 127.287C109 127.358 109.086 127.415 109.181 127.454C109.276 127.492 109.378 127.512 109.48 127.512H125.335C125.542 127.512 125.741 127.431 125.888 127.286C126.034 127.142 126.117 126.946 126.117 126.741C126.117 126.537 126.034 126.341 125.888 126.196C125.741 126.052 125.542 125.971 125.335 125.971H109.48Z" fill="#E6E6E6"/>
<path d="M117.408 140.371C116.435 140.371 115.484 140.087 114.675 139.554C113.866 139.021 113.235 138.263 112.863 137.377C112.49 136.49 112.393 135.515 112.583 134.574C112.773 133.633 113.241 132.769 113.929 132.09C114.617 131.412 115.494 130.95 116.448 130.763C117.402 130.575 118.391 130.671 119.29 131.039C120.189 131.406 120.958 132.027 121.498 132.825C122.039 133.623 122.327 134.561 122.327 135.52C122.326 136.806 121.807 138.039 120.885 138.949C119.963 139.858 118.712 140.37 117.408 140.371Z" fill="#6C63FF"/>
<path d="M176.483 52H204.112C204.418 52.0004 204.71 52.1201 204.926 52.3329C205.142 52.5457 205.263 52.8342 205.264 53.1351V81.5078C205.263 81.8088 205.142 82.0973 204.926 82.3101C204.71 82.5229 204.418 82.6426 204.112 82.6429H176.483C176.178 82.6426 175.885 82.5229 175.67 82.3101C175.454 82.0973 175.332 81.8088 175.332 81.5078V53.1351C175.332 52.8342 175.454 52.5457 175.67 52.3329C175.885 52.1201 176.178 52.0004 176.483 52ZM204.112 82.1889C204.295 82.1887 204.471 82.1169 204.601 81.9892C204.73 81.8615 204.803 81.6884 204.803 81.5078V53.1351C204.803 52.9546 204.73 52.7814 204.601 52.6538C204.471 52.5261 204.295 52.4542 204.112 52.4541H176.483C176.3 52.4542 176.125 52.5261 175.995 52.6538C175.866 52.7814 175.793 52.9546 175.793 53.1351V81.5078C175.793 81.6884 175.866 81.8615 175.995 81.9892C176.125 82.1169 176.3 82.1887 176.483 82.1889H204.112Z" fill="#3F3D56"/>
<path d="M198.225 76.792C198.432 76.792 198.631 76.7108 198.778 76.5663C198.924 76.4217 199.007 76.2257 199.007 76.0213C199.007 75.8169 198.924 75.6209 198.778 75.4764C198.631 75.3319 198.432 75.2507 198.225 75.2507H182.37C182.163 75.2507 181.964 75.3319 181.818 75.4764C181.671 75.6209 181.589 75.8169 181.589 76.0213C181.589 76.2257 181.671 76.4217 181.818 76.5663C181.964 76.7108 182.163 76.792 182.37 76.792H198.225Z" fill="#E6E6E6"/>
<path d="M198.225 72.2515C198.432 72.2515 198.631 72.1703 198.778 72.0257C198.924 71.8812 199.007 71.6852 199.007 71.4808C199.007 71.2764 198.924 71.0804 198.778 70.9359C198.631 70.7913 198.432 70.7102 198.225 70.7102H182.37C182.163 70.7102 181.964 70.7913 181.818 70.9359C181.671 71.0804 181.589 71.2764 181.589 71.4808C181.589 71.6852 181.671 71.8812 181.818 72.0257C181.964 72.1703 182.163 72.2515 182.37 72.2515H198.225Z" fill="#E6E6E6"/>
<path d="M190.298 57.851C191.271 57.851 192.222 58.1355 193.031 58.6685C193.84 59.2015 194.47 59.9591 194.843 60.8455C195.215 61.7319 195.313 62.7073 195.123 63.6482C194.933 64.5892 194.464 65.4536 193.776 66.132C193.088 66.8104 192.212 67.2724 191.257 67.4596C190.303 67.6467 189.314 67.5507 188.415 67.1835C187.516 66.8164 186.748 66.1946 186.207 65.3969C185.667 64.5992 185.378 63.6613 185.378 62.7019C185.38 61.4158 185.898 60.1828 186.821 59.2734C187.743 58.364 188.993 57.8524 190.298 57.851Z" fill="#6C63FF"/>
<path d="M95.2492 110.699C100.138 106.965 105.85 104.419 111.923 103.266C118.044 102.116 124.356 102.436 130.325 104.199C133.325 105.08 136.208 106.311 138.912 107.868C141.667 109.456 144.157 111.411 146.552 113.48C148.978 115.577 151.325 117.767 153.858 119.741C161.089 125.441 170.067 128.555 179.324 128.575C180.089 128.576 180.853 128.555 181.617 128.513C182.031 128.49 182.034 127.852 181.617 127.875C172.18 128.387 162.862 125.61 155.292 120.031C152.666 118.095 150.269 115.882 147.822 113.737C145.45 111.658 143.014 109.635 140.322 107.965C133.738 103.875 126.078 101.787 118.299 101.962C110.519 102.137 102.964 104.567 96.5762 108.948C95.9688 109.364 95.3755 109.8 94.7917 110.248C94.4635 110.5 94.9243 110.948 95.2492 110.699V110.699Z" fill="#3F3D56"/>
<path d="M94.9057 113.782C96.7625 113.782 98.2678 112.298 98.2678 110.467C98.2678 108.636 96.7625 107.152 94.9057 107.152C93.0489 107.152 91.5436 108.636 91.5436 110.467C91.5436 112.298 93.0489 113.782 94.9057 113.782Z" fill="#3F3D56"/>
<path d="M219.983 157.798C221.84 157.798 223.345 156.314 223.345 154.483C223.345 152.652 221.84 151.168 219.983 151.168C218.126 151.168 216.621 152.652 216.621 154.483C216.621 156.314 218.126 157.798 219.983 157.798Z" fill="#3F3D56"/>
<path d="M237.597 135.599H182.737C182.432 135.598 182.139 135.478 181.924 135.266C181.708 135.053 181.586 134.764 181.586 134.463V106.318C181.586 106.017 181.708 105.728 181.924 105.516C182.139 105.303 182.432 105.183 182.737 105.183H237.597C237.902 105.183 238.195 105.303 238.41 105.515C238.626 105.728 238.748 106.017 238.748 106.318V134.463C238.748 134.764 238.626 135.053 238.41 135.266C238.195 135.478 237.902 135.598 237.597 135.599ZM182.737 105.637C182.554 105.637 182.378 105.709 182.249 105.836C182.119 105.964 182.047 106.137 182.046 106.318V134.463C182.047 134.644 182.119 134.817 182.249 134.945C182.378 135.072 182.554 135.144 182.737 135.144H237.597C237.78 135.144 237.955 135.072 238.085 134.945C238.214 134.817 238.287 134.644 238.287 134.463V106.318C238.287 106.137 238.214 105.964 238.085 105.836C237.955 105.709 237.78 105.637 237.597 105.637H182.737Z" fill="#3F3D56"/>
<path d="M191.936 119.777C194.526 119.777 196.625 117.707 196.625 115.153C196.625 112.599 194.526 110.529 191.936 110.529C189.346 110.529 187.246 112.599 187.246 115.153C187.246 117.707 189.346 119.777 191.936 119.777Z" fill="#6C63FF"/>
<path d="M202.766 112.071C202.663 112.07 202.562 112.09 202.467 112.129C202.372 112.167 202.285 112.224 202.213 112.296C202.14 112.367 202.082 112.452 202.043 112.546C202.003 112.64 201.983 112.74 201.983 112.841C201.983 112.942 202.003 113.043 202.043 113.136C202.082 113.23 202.14 113.315 202.213 113.387C202.285 113.458 202.372 113.515 202.467 113.554C202.562 113.592 202.663 113.612 202.766 113.612H232.306C232.513 113.612 232.712 113.531 232.858 113.386C233.005 113.242 233.087 113.046 233.087 112.841C233.087 112.637 233.005 112.441 232.858 112.296C232.712 112.152 232.513 112.071 232.306 112.071H202.766Z" fill="#E6E6E6"/>
<path d="M202.766 116.694C202.663 116.694 202.562 116.714 202.467 116.753C202.372 116.791 202.285 116.848 202.213 116.92C202.14 116.991 202.082 117.076 202.043 117.17C202.003 117.263 201.983 117.364 201.983 117.465C201.983 117.566 202.003 117.667 202.043 117.76C202.082 117.854 202.14 117.939 202.213 118.011C202.285 118.082 202.372 118.139 202.467 118.177C202.562 118.216 202.663 118.236 202.766 118.236H218.621C218.828 118.236 219.027 118.155 219.173 118.01C219.32 117.866 219.402 117.669 219.402 117.465C219.402 117.261 219.32 117.065 219.173 116.92C219.027 116.776 218.828 116.694 218.621 116.694H202.766Z" fill="#E6E6E6"/>
<path d="M188.339 124.087C187.744 124.087 187.261 124.433 187.261 124.857C187.261 125.282 187.744 125.628 188.339 125.628H231.868C232.463 125.628 232.947 125.282 232.947 124.857C232.947 124.433 232.463 124.087 231.868 124.087H188.339Z" fill="#E6E6E6"/>
<path d="M188.339 128.711C187.744 128.711 187.261 129.056 187.261 129.481C187.261 129.906 187.744 130.252 188.339 130.252H231.868C232.463 130.252 232.947 129.906 232.947 129.481C232.947 129.056 232.463 128.711 231.868 128.711H188.339Z" fill="#E6E6E6"/>
<path d="M178.327 157.57C181.422 156.246 184.878 157.4 187.795 158.62C189.297 159.249 190.784 159.919 192.338 160.415C193.646 160.832 194.986 161.145 196.344 161.352C199.07 161.763 201.843 161.78 204.573 161.401C207.318 161.024 209.993 160.257 212.515 159.124C215.023 158.003 217.341 156.509 219.388 154.693C219.649 154.461 219.904 154.224 220.154 153.982C220.452 153.694 219.995 153.243 219.697 153.53C217.726 155.425 215.463 157 212.992 158.198C210.531 159.391 207.907 160.222 205.202 160.665C202.488 161.116 199.721 161.163 196.993 160.805C195.632 160.623 194.288 160.335 192.974 159.943C191.464 159.459 189.983 158.892 188.537 158.245C185.593 156.998 182.322 155.777 179.086 156.637C178.715 156.738 178.353 156.865 178.001 157.019C177.62 157.182 177.949 157.732 178.327 157.57V157.57Z" fill="#3F3D56"/>
<path d="M177.131 165.394H151.213L157.312 154.976C157.422 154.79 157.579 154.635 157.768 154.527C157.958 154.419 158.173 154.362 158.391 154.362C158.61 154.362 158.825 154.419 159.014 154.527C159.203 154.635 159.361 154.79 159.47 154.976L162.076 159.426L166.506 151.86C166.643 151.626 166.84 151.432 167.077 151.297C167.314 151.162 167.583 151.091 167.856 151.091C168.13 151.091 168.399 151.162 168.636 151.297C168.873 151.432 169.07 151.626 169.207 151.86L177.131 165.394Z" fill="#6C63FF"/>
<path d="M177.156 165.391H149.527C149.222 165.39 148.929 165.271 148.713 165.058C148.497 164.845 148.376 164.557 148.376 164.256V149.051C148.376 148.75 148.497 148.461 148.713 148.248C148.929 148.035 149.222 147.916 149.527 147.915H177.156C177.461 147.916 177.754 148.035 177.969 148.248C178.185 148.461 178.307 148.75 178.307 149.051V164.256C178.307 164.557 178.185 164.845 177.969 165.058C177.754 165.271 177.461 165.39 177.156 165.391ZM149.527 148.369C149.344 148.37 149.168 148.441 149.039 148.569C148.909 148.697 148.836 148.87 148.836 149.051V164.256C148.836 164.436 148.909 164.609 149.039 164.737C149.168 164.865 149.344 164.937 149.527 164.937H177.156C177.339 164.937 177.515 164.865 177.644 164.737C177.774 164.609 177.846 164.436 177.847 164.256V149.051C177.846 148.87 177.774 148.697 177.644 148.569C177.515 148.441 177.339 148.37 177.156 148.369H149.527Z" fill="#3F3D56"/>
<path d="M231.347 152.009L226.422 154.475C224.664 155.355 222.968 155.204 222.318 153.369C222.164 152.932 222.106 152.468 222.151 152.007C222.195 151.547 222.34 151.101 222.575 150.701C222.81 150.301 223.131 149.955 223.514 149.688C223.897 149.421 224.334 149.239 224.795 149.154L229.476 148.293L249.522 141.735L261.665 133.245L266.116 140.238L252.085 147.703L231.347 152.009Z" fill="#FFB8B8"/>
<path d="M254.336 233.859L250.568 233.24L250.987 226.222H254.964L254.336 233.859Z" fill="#FFB8B8"/>
<path d="M290.906 227.004L287.26 228.126L284.426 221.676L287.976 219.908L290.906 227.004Z" fill="#FFB8B8"/>
<path d="M288.876 220.855L284.27 222.713L262.291 194.229L255.383 227.667L250.777 226.841C247.823 198.013 245.414 168.609 248.37 154.702L265.431 153.979L273.176 178.335L276.944 194.848L288.876 220.855Z" fill="#2F2E41"/>
<path d="M254.129 239.535C253.44 239.68 252.722 239.605 252.079 239.32L249.841 238.327C247.964 238.232 246.686 238.6 245.641 237.256C245.346 236.871 245.161 236.416 245.105 235.937C245.049 235.459 245.123 234.974 245.321 234.533C245.517 234.091 245.829 233.708 246.225 233.424C246.621 233.14 247.086 232.965 247.573 232.917L250.648 231.007L250.809 232.439C252.214 233.224 253.882 232.885 255.65 232.121L256.615 235.451C256.739 235.88 256.773 236.33 256.714 236.773C256.655 237.216 256.504 237.642 256.271 238.025C256.037 238.408 255.727 238.739 255.359 238.999C254.99 239.259 254.572 239.441 254.129 239.535Z" fill="#2F2E41"/>
<path d="M292.398 232.704C291.795 233.062 291.091 233.221 290.389 233.157L287.945 232.934C286.138 233.445 285.051 234.203 283.62 233.266C283.215 232.997 282.89 232.625 282.679 232.191C282.468 231.756 282.379 231.273 282.421 230.793C282.461 230.312 282.63 229.85 282.911 229.455C283.192 229.06 283.574 228.745 284.019 228.544L286.298 225.753L286.922 227.056C288.509 227.348 289.975 226.493 291.396 225.205L293.405 228.045C293.664 228.412 293.844 228.826 293.934 229.264C294.024 229.702 294.021 230.153 293.927 230.59C293.832 231.027 293.648 231.44 293.385 231.803C293.122 232.167 292.786 232.473 292.398 232.704Z" fill="#2F2E41"/>
<path d="M259.151 124.67C263.313 124.67 266.687 121.343 266.687 117.239C266.687 113.135 263.313 109.808 259.151 109.808C254.989 109.808 251.615 113.135 251.615 117.239C251.615 121.343 254.989 124.67 259.151 124.67Z" fill="#FFB8B8"/>
<path d="M268.361 132.926L258.523 130.862L257.267 122.812L264.175 121.367L268.361 132.926Z" fill="#FFB8B8"/>
<path d="M265.64 155.011H248.056L252.02 145.2C251.732 141.823 253.183 139.34 255.26 137.178L257.895 130.655C262.152 127.892 265.362 128.099 268.78 131.687C272.832 137.345 270.027 145.85 265.64 155.011Z" fill="#6C63FF"/>
<path d="M257.685 175.859L257.185 181.282C257.007 183.218 255.976 184.555 254.054 184.122C253.597 184.019 253.167 183.82 252.795 183.538C252.423 183.256 252.117 182.898 251.899 182.489C251.68 182.08 251.553 181.629 251.528 181.167C251.502 180.705 251.578 180.243 251.751 179.813L253.499 175.446L258.523 155.218L257.685 140.563H266.059L265.012 156.25L257.685 175.859Z" fill="#FFB8B8"/>
<path d="M266.687 140.976H257.057L257.732 134.782C257.777 133.711 258.226 132.695 258.991 131.933C259.756 131.171 260.783 130.719 261.869 130.666C262.444 130.637 263.02 130.722 263.562 130.914C264.104 131.107 264.602 131.403 265.027 131.787C265.452 132.17 265.796 132.633 266.039 133.148C266.281 133.663 266.418 134.221 266.44 134.789L266.687 140.976Z" fill="#6C63FF"/>
<path d="M268.477 109.599C270.042 109.599 271.31 108.348 271.31 106.806C271.31 105.263 270.042 104.013 268.477 104.013C266.913 104.013 265.645 105.263 265.645 106.806C265.645 108.348 266.913 109.599 268.477 109.599Z" fill="#2F2E41"/>
<path d="M265.559 106.122C265.605 105.413 265.924 104.749 266.45 104.264C266.976 103.779 267.67 103.51 268.39 103.511C268.331 103.504 268.273 103.495 268.214 103.491C267.464 103.444 266.727 103.693 266.163 104.182C265.599 104.671 265.255 105.361 265.207 106.1C265.159 106.838 265.41 107.566 265.906 108.122C266.402 108.679 267.101 109.018 267.85 109.066C267.91 109.07 267.969 109.068 268.028 109.068C267.313 108.979 266.66 108.625 266.201 108.077C265.743 107.53 265.513 106.83 265.559 106.122Z" fill="#2F2E41"/>
<path d="M265.543 107.315C263.017 105.248 255.771 107.874 255.303 109.264C251.887 109.723 249.301 111.688 249.301 115.182V115.182C251.332 116.003 253.642 115.902 256.139 115.182C260.119 118.381 260.392 122.401 257.971 127.02L260.949 127.078L264.64 121.759L264.817 127.155L271.643 127.02V119.287C271.665 116.716 271.065 114.176 269.893 111.88C268.829 109.842 267.178 108.652 265.543 107.315Z" fill="#2F2E41"/>
<path d="M259.186 120.977C259.934 120.977 260.54 120.14 260.54 119.107C260.54 118.074 259.934 117.237 259.186 117.237C258.438 117.237 257.831 118.074 257.831 119.107C257.831 120.14 258.438 120.977 259.186 120.977Z" fill="#FFB8B8"/>
<path d="M88.7549 121.48C88.7549 121.48 89.5702 107.564 93.8032 110.726C98.0362 113.888 91.9546 122.77 91.9546 122.77L88.7549 121.48Z" fill="#FFB9B9"/>
<path d="M73.0064 162.758C73.0064 162.758 82.4093 173.166 77.1485 173.882C71.8878 174.597 69.8184 164.076 69.8184 164.076L73.0064 162.758Z" fill="#FFB9B9"/>
<path d="M60.7363 113.489C61.9165 113.795 62.9786 114.438 63.7892 115.338C64.5998 116.237 65.1229 117.353 65.2927 118.544L68.2836 139.535L72.4766 156.28C72.4766 156.28 74.573 158.14 73.7345 159.174C72.8959 160.207 74.7827 164.549 74.7827 164.549L69.5415 166.202C69.5415 166.202 68.9126 161.861 67.8643 161.654C66.9431 161.473 56.6307 134.309 54.145 127.729C53.8022 126.821 53.6083 126.305 53.6083 126.305C53.6083 126.305 54.0276 112.455 60.7363 113.489Z" fill="#575A89"/>
<path d="M61.6937 222.956L64.913 228.581C67.406 233.829 65.1906 234.783 59.078 232.181L57.6847 225.539L61.6937 222.956Z" fill="#FFB9B9"/>
<path d="M63.3179 230.432C63.3179 230.432 64.8462 227.979 65.3989 228.389C65.9517 228.8 68.2316 230.579 68.2316 230.579L71.2012 233.384C71.2012 233.384 81.2343 234.43 74.8591 237.896C68.4838 241.362 64.9606 238.488 64.9606 238.488C64.9606 238.488 56.0314 238.946 56.1754 236.49C56.3195 234.033 59.1992 230.147 59.1992 230.147C59.1992 230.147 62.8286 232.546 63.3179 230.432Z" fill="#2F2E41"/>
<path d="M47.4081 159.37L50.4262 195.379C50.4262 195.379 50.5268 216.905 53.7461 221.071C56.9654 225.237 57.0659 227.32 57.0659 227.32L63.7057 223.948C63.7057 223.948 60.2852 218.328 60.9894 217.467C61.4235 216.922 61.7324 216.29 61.8949 215.615L60.084 193.395L63.5045 154.708L47.4081 159.37Z" fill="#2F2E41"/>
<path d="M55.6574 222.956L52.8406 230.296L46.4523 227.663L49.8225 222.162L55.6574 222.956Z" fill="#FFB9B9"/>
<path d="M50.9582 227.824C50.9582 227.824 53.3541 226.347 53.6536 226.938C53.9531 227.529 55.151 230.039 55.151 230.039L56.4988 233.73C56.4988 233.73 64.7348 238.898 57.6967 239.193C50.6587 239.489 48.8617 235.502 48.8617 235.502C48.8617 235.502 40.9252 232.106 42.1232 230.039C43.3211 227.971 47.514 225.828 47.514 225.828C47.514 225.828 49.6104 229.448 50.9582 227.824Z" fill="#2F2E41"/>
<path d="M72.9612 159.469L74.5708 192.601C74.5708 192.601 59.8828 222.559 58.2732 223.352C57.7935 223.597 57.3684 223.933 57.0228 224.342C56.6772 224.751 56.4182 225.224 56.2611 225.733L47.4081 223.551L51.4322 217.202L60.2852 195.974C60.2852 195.974 61.6937 195.379 62.0961 193.395C62.4985 191.411 63.3033 191.411 61.2913 191.014C59.2792 190.617 59.2792 188.633 59.2792 188.633L52.6394 158.477L72.9612 159.469Z" fill="#2F2E41"/>
<path d="M73.6621 100.825C74.3741 96.4986 71.3945 92.4224 67.007 91.7203C62.6195 91.0183 58.4856 93.9563 57.7736 98.2825C57.0616 102.609 60.0412 106.685 64.4287 107.387C68.8162 108.089 72.9502 105.151 73.6621 100.825Z" fill="#FFB9B9"/>
<path d="M58.5751 100.05C58.5751 100.05 57.9715 110.168 57.1667 111.16C56.3619 112.152 65.6173 111.953 65.6173 111.953C65.6173 111.953 65.0137 103.422 65.6173 102.629C66.2209 101.835 58.5751 100.05 58.5751 100.05Z" fill="#FFB9B9"/>
<path d="M73.5641 161.652C73.5641 161.652 50.8279 159.668 46.6036 161.652C46.6036 161.652 48.1587 155.963 47.7569 155.369C47.4647 154.934 48.2709 138.731 48.0178 129.385C47.8743 124.11 46.6402 118.96 50.2278 115.044C51.4489 113.714 52.8108 112.597 54.2485 112.052C54.2485 112.052 53.8467 108.283 55.8584 108.085C55.8584 108.085 63.5058 107.29 66.3211 109.672C67.2213 110.429 67.7875 112.734 67.8475 114.72C66.4542 121.476 66.9473 128.973 68.2258 136.75C68.3041 137.244 68.3902 137.741 68.4763 138.237C69.833 145.95 71.8838 153.903 73.5641 161.652Z" fill="#575A89"/>
<path d="M61.5134 101.892C62.194 101.852 62.8586 102.079 63.5345 102.167C65.9528 102.484 68.4685 100.754 69.0024 98.4065C69.0452 98.094 69.1397 97.7905 69.2821 97.5081C69.6543 96.9089 70.5019 96.7947 71.2006 96.9324C71.8994 97.0702 72.5617 97.3927 73.2733 97.4295C74.372 97.4863 75.4268 96.8194 76.0124 95.9009C76.5657 94.9534 76.801 93.8576 76.6846 92.7703L76.1579 93.3153C75.9439 92.8689 75.8613 92.3721 75.9194 91.8816C75.6403 91.8083 75.3468 91.8069 75.067 91.8775C74.7871 91.9481 74.5304 92.0884 74.3213 92.2849C73.8568 92.3336 74.2073 91.4354 73.8623 91.1251C73.6945 91.0234 73.4945 90.9865 73.3007 91.0215C72.3127 91.0309 71.5134 90.2857 70.7348 89.6858C69.3858 88.6488 67.8083 87.9393 66.1297 87.6146C65.014 87.4 63.8277 87.3656 62.7696 87.7752C61.9155 88.1533 61.1446 88.6924 60.5004 89.3624C58.8439 90.933 57.377 92.7784 56.6879 94.9401C56.1277 96.7107 56.1118 98.6053 56.6423 100.385C56.92 101.309 57.7569 104.474 58.982 104.548C60.5215 104.64 59.5972 102.005 61.5134 101.892Z" fill="#2F2E41"/>
<path d="M64.8447 114.463L67.7281 114.767C67.7281 114.767 70.5586 120.182 70.353 121.311C70.1475 122.441 69.6998 121.755 70.9738 123.562C72.2477 125.369 75.8627 130.04 76.3104 130.725C76.758 131.411 88.9619 122.23 88.2032 119.479C88.2032 119.479 92.0575 122.206 93.7088 122.568C93.7088 122.568 81.1317 138.833 79.3791 140.914C77.6264 142.996 76.2159 142.568 73.8072 141.334C71.3986 140.1 59.2135 127.79 59.2135 127.79L64.8447 114.463Z" fill="#575A89"/>
<path opacity="0.1" d="M68.4763 138.237L58.4545 128.355L60.9906 127.54L68.2258 136.75C68.3041 137.244 68.3902 137.741 68.4763 138.237Z" fill="black"/>
</g>
</g>
<defs>
<filter id="filter0_d" x="38" y="223" width="260" height="36" filterUnits="userSpaceOnUse" color-interpolation-filters="sRGB">
<feFlood flood-opacity="0" result="BackgroundImageFix"/>
<feColorMatrix in="SourceAlpha" type="matrix" values="0 0 0 0 0 0 0 0 0 0 0 0 0 0 0 0 0 0 127 0"/>
<feOffset dy="4"/>
<feGaussianBlur stdDeviation="2"/>
<feColorMatrix type="matrix" values="0 0 0 0 0 0 0 0 0 0 0 0 0 0 0 0 0 0 0.25 0"/>
<feBlend mode="normal" in2="BackgroundImageFix" result="effect1_dropShadow"/>
<feBlend mode="normal" in="SourceGraphic" in2="effect1_dropShadow" result="shape"/>
</filter>
<filter id="filter1_d" x="38" y="223" width="260" height="36" filterUnits="userSpaceOnUse" color-interpolation-filters="sRGB">
<feFlood flood-opacity="0" result="BackgroundImageFix"/>
<feColorMatrix in="SourceAlpha" type="matrix" values="0 0 0 0 0 0 0 0 0 0 0 0 0 0 0 0 0 0 127 0"/>
<feOffset dy="4"/>
<feGaussianBlur stdDeviation="2"/>
<feColorMatrix type="matrix" values="0 0 0 0 0 0 0 0 0 0 0 0 0 0 0 0 0 0 0.25 0"/>
<feBlend mode="normal" in2="BackgroundImageFix" result="effect1_dropShadow"/>
<feBlend mode="normal" in="SourceGraphic" in2="effect1_dropShadow" result="shape"/>
</filter>
<filter id="filter2_d" x="38" y="52" width="260" height="195.607" filterUnits="userSpaceOnUse" color-interpolation-filters="sRGB">
<feFlood flood-opacity="0" result="BackgroundImageFix"/>
<feColorMatrix in="SourceAlpha" type="matrix" values="0 0 0 0 0 0 0 0 0 0 0 0 0 0 0 0 0 0 127 0"/>
<feOffset dy="4"/>
<feGaussianBlur stdDeviation="2"/>
<feColorMatrix type="matrix" values="0 0 0 0 0 0 0 0 0 0 0 0 0 0 0 0 0 0 0.25 0"/>
<feBlend mode="normal" in2="BackgroundImageFix" result="effect1_dropShadow"/>
<feBlend mode="normal" in="SourceGraphic" in2="effect1_dropShadow" result="shape"/>
</filter>
<filter id="filter3_d" x="38" y="52" width="260" height="195.607" filterUnits="userSpaceOnUse" color-interpolation-filters="sRGB">
<feFlood flood-opacity="0" result="BackgroundImageFix"/>
<feColorMatrix in="SourceAlpha" type="matrix" values="0 0 0 0 0 0 0 0 0 0 0 0 0 0 0 0 0 0 127 0"/>
<feOffset dy="4"/>
<feGaussianBlur stdDeviation="2"/>
<feColorMatrix type="matrix" values="0 0 0 0 0 0 0 0 0 0 0 0 0 0 0 0 0 0 0.25 0"/>
<feBlend mode="normal" in2="BackgroundImageFix" result="effect1_dropShadow"/>
<feBlend mode="normal" in="SourceGraphic" in2="effect1_dropShadow" result="shape"/>
</filter>
<clipPath id="clip0">
<rect width="252" height="187.607" fill="white" transform="translate(42 52)"/>
</clipPath>
<clipPath id="clip1">
<rect width="252" height="187.607" fill="white" transform="translate(42 52)"/>
</clipPath>
</defs>
</svg>
