<svg width="24" height="24" viewBox="0 0 24 24" fill="none" xmlns="http://www.w3.org/2000/svg">
<path d="M20.0156 5.97994V0H3.98438V5.97989L0 8.95158V21.1875C0 22.7383 1.26169 24 2.8125 24H21.1875C22.7383 24 24 22.7383 24 21.1875V8.95158L20.0156 5.97994ZM21.4131 9.36127L20.0156 10.4007V8.31895L21.4131 9.36127ZM18.1406 1.875V11.7954L12 16.3628L5.85938 11.7954V1.875H18.1406ZM3.98438 10.4007L2.58689 9.36122L3.98438 8.31895V10.4007ZM21.1875 22.125H2.8125C2.29556 22.125 1.875 21.7044 1.875 21.1875V11.1686L12 18.6997L22.125 11.1686V21.1875C22.125 21.7044 21.7044 22.125 21.1875 22.125ZM10.7812 6.70312H8.90625C8.90625 5.84564 9.27398 5.02439 9.91519 4.44994C10.5742 3.8595 11.4644 3.57722 12.3574 3.67561C13.7771 3.83184 14.9207 4.9658 15.0765 6.37191C15.219 7.6575 14.4684 8.57072 13.8914 9.14583C13.7467 9.29006 13.6135 9.41606 13.4961 9.52716C12.9558 10.0384 12.9377 10.0862 12.9377 10.3657V10.4062H11.0627V10.3657C11.0627 9.2483 11.6187 8.72217 12.2074 8.1652C12.3219 8.05687 12.4403 7.94489 12.5677 7.81791C13.0617 7.32553 13.2546 6.95489 13.2129 6.57853C13.153 6.03745 12.7069 5.60048 12.1522 5.53941C11.7829 5.49867 11.4328 5.6078 11.1664 5.84648C10.918 6.06891 10.7812 6.37317 10.7812 6.70312ZM11.0625 11.8594H12.9375V13.7344H11.0625V11.8594Z" fill="black"/>
</svg>
