<svg width="524" height="499" viewBox="0 0 524 499" fill="none" xmlns="http://www.w3.org/2000/svg">
<g filter="url(#filter0_d)">
<rect x="29" y="22" width="465.074" height="441" rx="44" fill="white"/>
</g>
<circle cx="260.99" cy="243.047" r="165.238" fill="url(#paint0_linear)"/>
<path d="M140.836 355.691C137.929 344.48 150.027 335.351 160.01 341.223L223.751 378.713C233.735 384.584 231.635 399.595 220.424 402.502L169.808 415.628C162.858 417.43 155.763 413.257 153.961 406.307L140.836 355.691Z" fill="url(#paint1_linear)" fill-opacity="0.98"/>
<ellipse cx="260.391" cy="199.562" rx="41.3486" ry="40.1501" fill="white"/>
<rect x="185.484" y="251.697" width="151.012" height="76.7047" rx="34" fill="white"/>
<path d="M260.497 179.478C269.268 179.478 273.654 182.428 273.654 188.328C273.654 189.862 273.319 191.278 272.651 192.576C272.021 193.874 271.235 195.015 270.291 195.998C269.347 196.942 268.127 198.063 266.633 199.361C264.745 200.974 263.348 202.35 262.444 203.491C261.539 204.592 261.087 205.831 261.087 207.208C260.89 207.365 260.536 207.503 260.025 207.621C259.553 207.7 259.1 207.739 258.668 207.739C257.606 207.739 256.78 207.424 256.19 206.795C255.6 206.126 255.305 205.222 255.305 204.081C255.305 203.019 255.619 201.996 256.249 201.013C256.917 199.99 257.94 198.692 259.317 197.119C260.929 195.31 262.168 193.717 263.034 192.34C263.899 190.924 264.332 189.39 264.332 187.738C264.332 186.322 263.997 185.181 263.329 184.316C262.699 183.451 261.696 183.018 260.32 183.018C258.982 183.018 257.96 183.47 257.252 184.375C256.544 185.24 256.19 186.42 256.19 187.915C256.19 188.977 256.347 190.098 256.662 191.278C255.954 191.632 255.01 191.809 253.83 191.809C251.981 191.809 250.486 191.376 249.346 190.511C248.244 189.606 247.694 188.289 247.694 186.558C247.694 184.001 248.952 182.192 251.47 181.13C253.987 180.029 256.996 179.478 260.497 179.478ZM258.727 212.282C260.3 212.282 261.559 212.656 262.503 213.403C263.486 214.15 263.978 215.193 263.978 216.53C263.978 217.907 263.466 218.949 262.444 219.657C261.421 220.404 260.103 220.778 258.491 220.778C256.917 220.778 255.639 220.424 254.656 219.716C253.672 219.008 253.181 217.985 253.181 216.648C253.181 215.271 253.692 214.209 254.715 213.462C255.777 212.675 257.114 212.282 258.727 212.282Z" fill="#4158D0"/>
<defs>
<filter id="filter0_d" x="0" y="0" width="523.074" height="499" filterUnits="userSpaceOnUse" color-interpolation-filters="sRGB">
<feFlood flood-opacity="0" result="BackgroundImageFix"/>
<feColorMatrix in="SourceAlpha" type="matrix" values="0 0 0 0 0 0 0 0 0 0 0 0 0 0 0 0 0 0 127 0" result="hardAlpha"/>
<feOffset dy="7"/>
<feGaussianBlur stdDeviation="14.5"/>
<feComposite in2="hardAlpha" operator="out"/>
<feColorMatrix type="matrix" values="0 0 0 0 0.392157 0 0 0 0 0.392157 0 0 0 0 0.435294 0 0 0 0.2 0"/>
<feBlend mode="normal" in2="BackgroundImageFix" result="effect1_dropShadow"/>
<feBlend mode="normal" in="SourceGraphic" in2="effect1_dropShadow" result="shape"/>
</filter>
<linearGradient id="paint0_linear" x1="318.441" y1="109.543" x2="181.107" y2="400.078" gradientUnits="userSpaceOnUse">
<stop stop-color="#FFCC70"/>
<stop offset="0.510417" stop-color="#C850C0"/>
<stop offset="1" stop-color="#4158D0"/>
</linearGradient>
<linearGradient id="paint1_linear" x1="222.69" y1="339.892" x2="172.917" y2="424.788" gradientUnits="userSpaceOnUse">
<stop stop-color="#6F55CB"/>
<stop offset="1" stop-color="#4258D0"/>
</linearGradient>
</defs>
</svg>
