<svg width="1001" height="193" viewBox="0 0 1001 193" fill="none" xmlns="http://www.w3.org/2000/svg">
<rect width="1001" height="193" rx="40" fill="white"/>
<path d="M209.698 134.277C227.846 134.277 240.407 124.325 242.802 107.879H229.337C227.208 117.14 219.916 122.622 209.751 122.622C196.445 122.622 188.036 111.817 188.036 94.5732C188.036 77.4355 196.498 66.5781 209.698 66.5781C219.65 66.5781 227.474 72.9116 229.283 82.5449H242.802C241.099 66.0459 227.527 54.9224 209.698 54.9224C187.876 54.9224 173.985 70.0908 173.985 94.5732C173.985 119.215 187.77 134.277 209.698 134.277ZM280.68 134.118C297.232 134.118 307.983 123.101 307.983 104.792C307.983 86.5366 297.125 75.4131 280.68 75.4131C264.234 75.4131 253.376 86.5898 253.376 104.792C253.376 123.101 264.127 134.118 280.68 134.118ZM280.68 123.633C272.27 123.633 266.842 116.82 266.842 104.792C266.842 92.8169 272.324 85.9512 280.68 85.9512C289.089 85.9512 294.517 92.8169 294.517 104.792C294.517 116.82 289.089 123.633 280.68 123.633ZM320.313 133H333.566V100.321C333.566 92.2314 338.409 86.7495 346.02 86.7495C353.578 86.7495 357.303 91.2202 357.303 99.2036V133H370.556V96.5425C370.556 83.5029 363.477 75.5195 351.023 75.5195C342.348 75.5195 336.333 79.5645 333.3 86.2705H333.034V76.584H320.313V133ZM385.015 133H398.268V100.321C398.268 92.2314 403.111 86.7495 410.722 86.7495C418.279 86.7495 422.005 91.2202 422.005 99.2036V133H435.257V96.5425C435.257 83.5029 428.179 75.5195 415.725 75.5195C407.049 75.5195 401.035 79.5645 398.001 86.2705H397.735V76.584H385.015V133ZM474.04 85.6851C481.65 85.6851 486.76 91.2734 487.026 99.2568H460.681C461.213 91.3799 466.588 85.6851 474.04 85.6851ZM487.079 116.128C485.642 120.812 480.958 123.899 474.785 123.899C466.109 123.899 460.574 117.832 460.574 108.784V107.985H500.012V103.674C500.012 86.5366 490.006 75.4131 473.986 75.4131C457.7 75.4131 447.375 87.1753 447.375 105.005C447.375 122.994 457.594 134.118 474.519 134.118C487.877 134.118 497.777 126.773 499.48 116.128H487.079ZM562.106 96.7021C561.201 84.8335 551.994 75.4131 537.091 75.4131C520.699 75.4131 510.054 86.7495 510.054 104.792C510.054 123.101 520.699 134.118 537.198 134.118C551.355 134.118 561.095 125.815 562.159 113.201H549.652C548.428 119.588 544.064 123.42 537.357 123.42C528.948 123.42 523.52 116.607 523.52 104.792C523.52 93.1895 528.895 86.1641 537.251 86.1641C544.33 86.1641 548.534 90.688 549.599 96.7021H562.106ZM577.577 63.3848V76.584H569.487V86.8027H577.577V117.991C577.577 128.955 582.367 133.266 594.555 133.266C597.376 133.266 599.984 133.053 601.421 132.734V122.622C600.569 122.781 598.866 122.888 597.642 122.888C592.958 122.888 590.829 120.759 590.829 116.128V86.8027H601.474V76.584H590.829V63.3848H577.577Z" fill="black"/>
<path d="M671.425 133H684.039L656.31 56.1997H643.43L615.701 133H628.102L635.127 112.243H664.4L671.425 133ZM649.604 68.9731H649.923L661.366 102.663H638.161L649.604 68.9731ZM694.933 133H706.429V100.375C706.429 91.6992 711.645 85.9512 719.734 85.9512C727.718 85.9512 731.656 90.5815 731.656 98.9907V133H743.206V96.7554C743.206 83.9287 736.127 76.0518 723.779 76.0518C715.157 76.0518 709.196 79.9902 706.163 86.377H705.897V77.0098H694.933V133ZM782.201 134.064C798.221 134.064 808.759 123.047 808.759 105.005C808.759 87.0156 798.168 75.9985 782.201 75.9985C766.234 75.9985 755.643 87.0156 755.643 105.005C755.643 123.047 766.181 134.064 782.201 134.064ZM782.201 124.591C773.206 124.591 767.352 117.459 767.352 105.005C767.352 92.604 773.206 85.4722 782.201 85.4722C791.195 85.4722 797.05 92.604 797.05 105.005C797.05 117.459 791.249 124.591 782.201 124.591ZM821.462 133H832.958V100.375C832.958 91.6992 838.174 85.9512 846.264 85.9512C854.247 85.9512 858.186 90.5815 858.186 98.9907V133H869.735V96.7554C869.735 83.9287 862.656 76.0518 850.309 76.0518C841.687 76.0518 835.726 79.9902 832.692 86.377H832.426V77.0098H821.462V133Z" fill="#4158D0"/>
<path d="M125.34 102.25L114.639 115.004C116.886 118.196 116.753 122.707 114.051 125.927C110.851 129.741 105.242 130.321 101.547 127.22C97.8523 124.12 97.4497 118.495 100.65 114.682C103.351 111.462 107.77 110.547 111.304 112.206L122.006 99.4532C118.956 95.9666 117.855 91.234 118.808 86.7635L106.539 86.4941C106.281 87.1655 105.909 87.8086 105.42 88.3922C103.112 91.1427 99.0657 91.5612 96.4008 89.325C93.7358 87.0889 93.4454 83.0318 95.7533 80.2813C98.0613 77.5308 102.107 77.1123 104.772 79.3484C105.655 80.0892 106.275 81.0304 106.629 82.057L120.497 82.3615C120.947 81.5774 121.468 80.82 122.07 80.1025C124.214 77.5469 127.009 75.8652 129.983 75.1021L128.728 57.5665C128.641 56.3483 129.555 55.2589 130.77 55.1335C131.377 55.0709 131.945 55.2608 132.371 55.6187C132.798 55.9766 133.084 56.5026 133.127 57.1119L134.383 74.6475C136.726 74.7562 139.042 75.4254 141.115 76.6793L151.84 63.8976C150.584 61.6461 150.802 58.7047 152.603 56.5586C154.911 53.8081 158.957 53.3897 161.622 55.6258C164.287 57.862 164.577 61.9191 162.269 64.6696C160.468 66.8158 157.61 67.542 155.174 66.6951L144.449 79.4766C149.115 84.8109 149.223 93.0618 144.385 98.8269C139.548 104.592 131.403 105.919 125.34 102.25ZM101.885 82.7892C101.058 82.0954 99.8033 82.2254 99.0875 83.0785C98.3716 83.9317 98.4615 85.19 99.2883 85.8838C100.115 86.5776 101.37 86.4476 102.086 85.5944C102.802 84.7413 102.712 83.4828 101.885 82.7892ZM103.983 117.479C102.375 119.395 102.578 122.221 104.434 123.779C106.29 125.337 109.109 125.045 110.717 123.129C112.325 121.213 112.122 118.387 110.266 116.829C108.409 115.272 105.591 115.563 103.983 117.479ZM158.735 59.0668C157.908 58.373 156.653 58.503 155.937 59.3562C155.311 60.1029 155.301 61.1599 155.863 61.8771C155.976 61.9406 156.086 62.0139 156.189 62.1004C156.292 62.1869 156.383 62.2822 156.466 62.3829C157.27 62.8115 158.309 62.6187 158.935 61.8721C159.651 61.0189 159.561 59.7604 158.735 59.0668ZM140.003 81.3901C135.689 77.7704 129.14 78.448 125.404 82.9004C124.745 83.6861 124.219 84.5386 123.82 85.4281C123.801 85.4728 123.781 85.5167 123.76 85.5598C121.975 89.6843 122.937 94.5904 126.452 97.5399C130.766 101.16 137.315 100.482 141.051 96.0298C144.787 91.5772 144.317 85.0099 140.003 81.3901Z" fill="#4158D0"/>
<path d="M152.2 133.862C148.505 130.762 148.102 125.137 151.302 121.323C151.451 121.146 151.607 120.977 151.766 120.814L143.271 106.456C142.657 105.418 143.012 104.05 144.063 103.4C144.9 102.883 145.925 102.976 146.619 103.558C146.798 103.708 146.954 103.89 147.08 104.102L155.575 118.459C158.354 117.581 161.464 118.065 163.806 120.03C167.501 123.13 167.904 128.755 164.704 132.568C161.504 136.382 155.894 136.962 152.2 133.862ZM160.919 123.471C159.062 121.913 156.244 122.204 154.636 124.121C153.028 126.037 153.231 128.863 155.087 130.421C156.944 131.978 159.762 131.687 161.37 129.771C162.977 127.855 162.775 125.028 160.919 123.471Z" fill="#4158D0"/>
<path d="M124.096 49.8887C120.401 46.7883 119.998 41.1635 123.198 37.3502C126.398 33.5366 132.007 32.9565 135.702 36.0569C139.397 39.1571 139.799 44.7817 136.6 48.5952C133.4 52.4087 127.79 52.9889 124.096 49.8887ZM132.815 39.4976C130.958 37.9398 128.14 38.2313 126.532 40.1475C124.924 42.0636 125.127 44.8899 126.983 46.4475C128.84 48.0052 131.658 47.7137 133.266 45.7975C134.874 43.8817 134.672 41.0555 132.815 39.4976Z" fill="#4158D0"/>
</svg>
