<svg width="331" height="342" viewBox="0 0 331 342" fill="none" xmlns="http://www.w3.org/2000/svg">
<circle cx="165.238" cy="165.238" r="165.238" fill="url(#paint0_linear)"/>
<path d="M45.0838 277.882C42.1767 266.671 54.2752 257.542 64.2583 263.414L128 300.904C137.983 306.776 135.883 321.786 124.672 324.693L74.0563 337.819C67.1065 339.621 60.0115 335.448 58.2093 328.498L45.0838 277.882Z" fill="url(#paint1_linear)" fill-opacity="0.98"/>
<ellipse cx="164.639" cy="121.753" rx="41.3486" ry="40.1501" fill="white"/>
<rect x="89.7319" y="173.888" width="151.012" height="76.7047" rx="34" fill="white"/>
<path d="M164.745 101.669C173.516 101.669 177.902 104.619 177.902 110.519C177.902 112.053 177.567 113.469 176.899 114.767C176.269 116.065 175.483 117.206 174.539 118.189C173.595 119.133 172.375 120.254 170.881 121.552C168.993 123.165 167.596 124.542 166.692 125.682C165.787 126.784 165.335 128.023 165.335 129.399C165.138 129.557 164.784 129.694 164.273 129.812C163.801 129.891 163.348 129.93 162.916 129.93C161.854 129.93 161.028 129.616 160.438 128.986C159.848 128.318 159.553 127.413 159.553 126.272C159.553 125.21 159.867 124.188 160.497 123.204C161.165 122.182 162.188 120.884 163.565 119.31C165.177 117.501 166.416 115.908 167.282 114.531C168.147 113.115 168.58 111.581 168.58 109.929C168.58 108.513 168.245 107.373 167.577 106.507C166.947 105.642 165.944 105.209 164.568 105.209C163.23 105.209 162.208 105.662 161.5 106.566C160.792 107.432 160.438 108.612 160.438 110.106C160.438 111.168 160.595 112.289 160.91 113.469C160.202 113.823 159.258 114 158.078 114C156.229 114 154.734 113.568 153.594 112.702C152.492 111.798 151.942 110.48 151.942 108.749C151.942 106.193 153.2 104.383 155.718 103.321C158.235 102.22 161.244 101.669 164.745 101.669ZM162.975 134.473C164.548 134.473 165.807 134.847 166.751 135.594C167.734 136.342 168.226 137.384 168.226 138.721C168.226 140.098 167.714 141.14 166.692 141.848C165.669 142.596 164.351 142.969 162.739 142.969C161.165 142.969 159.887 142.615 158.904 141.907C157.92 141.199 157.429 140.177 157.429 138.839C157.429 137.463 157.94 136.401 158.963 135.653C160.025 134.867 161.362 134.473 162.975 134.473Z" fill="#4158D0"/>
<defs>
<linearGradient id="paint0_linear" x1="222.689" y1="31.7345" x2="85.3548" y2="322.269" gradientUnits="userSpaceOnUse">
<stop stop-color="#FFCC70"/>
<stop offset="0.510417" stop-color="#C850C0"/>
<stop offset="1" stop-color="#4158D0"/>
</linearGradient>
<linearGradient id="paint1_linear" x1="126.938" y1="262.083" x2="77.1647" y2="346.979" gradientUnits="userSpaceOnUse">
<stop stop-color="#6F55CB"/>
<stop offset="1" stop-color="#4258D0"/>
</linearGradient>
</defs>
</svg>
